<svg height="274pt" viewBox="0.00 0.00 380.00 304.00" width="343pt" xmlns="http://www.w3.org/2000/svg" xmlns:xlink="http://www.w3.org/1999/xlink">
<g class="graph" id="graph0" transform="scale(.9028 .9028) rotate(0) translate(4 300)">
<title>G</title>
<polygon fill="#ffffff" points="-4,4 -4,-300 376,-300 376,4 -4,4" stroke="transparent"/>
<!-- 139665771907600 -->
<g class="node" id="node1">
<title>139665771907600</title>
<polygon fill="none" points="0,-249.5 0,-295.5 372,-295.5 372,-249.5 0,-249.5" stroke="#000000"/>
<text fill="#000000" font-family="Times,serif" font-size="14.00" text-anchor="middle" x="86.5" y="-268.8">resnet50_input: InputLayer</text>
<polyline fill="none" points="173,-249.5 173,-295.5 " stroke="#000000"/>
<text fill="#000000" font-family="Times,serif" font-size="14.00" text-anchor="middle" x="202" y="-280.3">input:</text>
<polyline fill="none" points="173,-272.5 231,-272.5 " stroke="#000000"/>
<text fill="#000000" font-family="Times,serif" font-size="14.00" text-anchor="middle" x="202" y="-257.3">output:</text>
<polyline fill="none" points="231,-249.5 231,-295.5 " stroke="#000000"/>
<text fill="#000000" font-family="Times,serif" font-size="14.00" text-anchor="middle" x="301.5" y="-280.3">[(None, 150, 150, 3)]</text>
<polyline fill="none" points="231,-272.5 372,-272.5 " stroke="#000000"/>
<text fill="#000000" font-family="Times,serif" font-size="14.00" text-anchor="middle" x="301.5" y="-257.3">[(None, 150, 150, 3)]</text>
</g>
<!-- 139665769805520 -->
<g class="node" id="node2">
<title>139665769805520</title>
<polygon fill="none" points="24,-166.5 24,-212.5 348,-212.5 348,-166.5 24,-166.5" stroke="#000000"/>
<text fill="#000000" font-family="Times,serif" font-size="14.00" text-anchor="middle" x="91" y="-185.8">resnet50: Functional</text>
<polyline fill="none" points="158,-166.5 158,-212.5 " stroke="#000000"/>
<text fill="#000000" font-family="Times,serif" font-size="14.00" text-anchor="middle" x="187" y="-197.3">input:</text>
<polyline fill="none" points="158,-189.5 216,-189.5 " stroke="#000000"/>
<text fill="#000000" font-family="Times,serif" font-size="14.00" text-anchor="middle" x="187" y="-174.3">output:</text>
<polyline fill="none" points="216,-166.5 216,-212.5 " stroke="#000000"/>
<text fill="#000000" font-family="Times,serif" font-size="14.00" text-anchor="middle" x="282" y="-197.3">(None, 150, 150, 3)</text>
<polyline fill="none" points="216,-189.5 348,-189.5 " stroke="#000000"/>
<text fill="#000000" font-family="Times,serif" font-size="14.00" text-anchor="middle" x="282" y="-174.3">(None, 5, 5, 2048)</text>
</g>
<!-- 139665771907600&#45;&gt;139665769805520 -->
<g class="edge" id="edge1">
<title>139665771907600-&gt;139665769805520</title>
<path d="M186,-249.3799C186,-241.1745 186,-231.7679 186,-222.8786" fill="none" stroke="#000000"/>
<polygon fill="#000000" points="189.5001,-222.784 186,-212.784 182.5001,-222.784 189.5001,-222.784" stroke="#000000"/>
</g>
<!-- 139665813259792 -->
<g class="node" id="node3">
<title>139665813259792</title>
<polygon fill="none" points="38,-83.5 38,-129.5 334,-129.5 334,-83.5 38,-83.5" stroke="#000000"/>
<text fill="#000000" font-family="Times,serif" font-size="14.00" text-anchor="middle" x="94.5" y="-102.8">flatten_5: Flatten</text>
<polyline fill="none" points="151,-83.5 151,-129.5 " stroke="#000000"/>
<text fill="#000000" font-family="Times,serif" font-size="14.00" text-anchor="middle" x="180" y="-114.3">input:</text>
<polyline fill="none" points="151,-106.5 209,-106.5 " stroke="#000000"/>
<text fill="#000000" font-family="Times,serif" font-size="14.00" text-anchor="middle" x="180" y="-91.3">output:</text>
<polyline fill="none" points="209,-83.5 209,-129.5 " stroke="#000000"/>
<text fill="#000000" font-family="Times,serif" font-size="14.00" text-anchor="middle" x="271.5" y="-114.3">(None, 5, 5, 2048)</text>
<polyline fill="none" points="209,-106.5 334,-106.5 " stroke="#000000"/>
<text fill="#000000" font-family="Times,serif" font-size="14.00" text-anchor="middle" x="271.5" y="-91.3">(None, 51200)</text>
</g>
<!-- 139665769805520&#45;&gt;139665813259792 -->
<g class="edge" id="edge2">
<title>139665769805520-&gt;139665813259792</title>
<path d="M186,-166.3799C186,-158.1745 186,-148.7679 186,-139.8786" fill="none" stroke="#000000"/>
<polygon fill="#000000" points="189.5001,-139.784 186,-129.784 182.5001,-139.784 189.5001,-139.784" stroke="#000000"/>
</g>
<!-- 139665817560720 -->
<g class="node" id="node4">
<title>139665817560720</title>
<polygon fill="none" points="52.5,-.5 52.5,-46.5 319.5,-46.5 319.5,-.5 52.5,-.5" stroke="#000000"/>
<text fill="#000000" font-family="Times,serif" font-size="14.00" text-anchor="middle" x="106" y="-19.8">dense_5: Dense</text>
<polyline fill="none" points="159.5,-.5 159.5,-46.5 " stroke="#000000"/>
<text fill="#000000" font-family="Times,serif" font-size="14.00" text-anchor="middle" x="188.5" y="-31.3">input:</text>
<polyline fill="none" points="159.5,-23.5 217.5,-23.5 " stroke="#000000"/>
<text fill="#000000" font-family="Times,serif" font-size="14.00" text-anchor="middle" x="188.5" y="-8.3">output:</text>
<polyline fill="none" points="217.5,-.5 217.5,-46.5 " stroke="#000000"/>
<text fill="#000000" font-family="Times,serif" font-size="14.00" text-anchor="middle" x="268.5" y="-31.3">(None, 51200)</text>
<polyline fill="none" points="217.5,-23.5 319.5,-23.5 " stroke="#000000"/>
<text fill="#000000" font-family="Times,serif" font-size="14.00" text-anchor="middle" x="268.5" y="-8.3">(None, 2)</text>
</g>
<!-- 139665813259792&#45;&gt;139665817560720 -->
<g class="edge" id="edge3">
<title>139665813259792-&gt;139665817560720</title>
<path d="M186,-83.3799C186,-75.1745 186,-65.7679 186,-56.8786" fill="none" stroke="#000000"/>
<polygon fill="#000000" points="189.5001,-56.784 186,-46.784 182.5001,-56.784 189.5001,-56.784" stroke="#000000"/>
</g>
</g>
</svg>