<svg height="274pt" viewBox="0.00 0.00 468.00 304.00" width="422pt" xmlns="http://www.w3.org/2000/svg" xmlns:xlink="http://www.w3.org/1999/xlink">
<g class="graph" id="graph0" transform="scale(.9028 .9028) rotate(0) translate(4 300)">
<title>G</title>
<polygon fill="#ffffff" points="-4,4 -4,-300 464,-300 464,4 -4,4" stroke="transparent"/>
<!-- 139677742940496 -->
<g class="node" id="node1">
<title>139677742940496</title>
<polygon fill="none" points="0,-249.5 0,-295.5 460,-295.5 460,-249.5 0,-249.5" stroke="#000000"/>
<text fill="#000000" font-family="Times,serif" font-size="14.00" text-anchor="middle" x="130.5" y="-268.8">mobilenetv2_1.00_224_input: InputLayer</text>
<polyline fill="none" points="261,-249.5 261,-295.5 " stroke="#000000"/>
<text fill="#000000" font-family="Times,serif" font-size="14.00" text-anchor="middle" x="290" y="-280.3">input:</text>
<polyline fill="none" points="261,-272.5 319,-272.5 " stroke="#000000"/>
<text fill="#000000" font-family="Times,serif" font-size="14.00" text-anchor="middle" x="290" y="-257.3">output:</text>
<polyline fill="none" points="319,-249.5 319,-295.5 " stroke="#000000"/>
<text fill="#000000" font-family="Times,serif" font-size="14.00" text-anchor="middle" x="389.5" y="-280.3">[(None, 150, 150, 3)]</text>
<polyline fill="none" points="319,-272.5 460,-272.5 " stroke="#000000"/>
<text fill="#000000" font-family="Times,serif" font-size="14.00" text-anchor="middle" x="389.5" y="-257.3">[(None, 150, 150, 3)]</text>
</g>
<!-- 139677740791696 -->
<g class="node" id="node2">
<title>139677740791696</title>
<polygon fill="none" points="24.5,-166.5 24.5,-212.5 435.5,-212.5 435.5,-166.5 24.5,-166.5" stroke="#000000"/>
<text fill="#000000" font-family="Times,serif" font-size="14.00" text-anchor="middle" x="135" y="-185.8">mobilenetv2_1.00_224: Functional</text>
<polyline fill="none" points="245.5,-166.5 245.5,-212.5 " stroke="#000000"/>
<text fill="#000000" font-family="Times,serif" font-size="14.00" text-anchor="middle" x="274.5" y="-197.3">input:</text>
<polyline fill="none" points="245.5,-189.5 303.5,-189.5 " stroke="#000000"/>
<text fill="#000000" font-family="Times,serif" font-size="14.00" text-anchor="middle" x="274.5" y="-174.3">output:</text>
<polyline fill="none" points="303.5,-166.5 303.5,-212.5 " stroke="#000000"/>
<text fill="#000000" font-family="Times,serif" font-size="14.00" text-anchor="middle" x="369.5" y="-197.3">(None, 150, 150, 3)</text>
<polyline fill="none" points="303.5,-189.5 435.5,-189.5 " stroke="#000000"/>
<text fill="#000000" font-family="Times,serif" font-size="14.00" text-anchor="middle" x="369.5" y="-174.3">(None, 5, 5, 1280)</text>
</g>
<!-- 139677742940496&#45;&gt;139677740791696 -->
<g class="edge" id="edge1">
<title>139677742940496-&gt;139677740791696</title>
<path d="M230,-249.3799C230,-241.1745 230,-231.7679 230,-222.8786" fill="none" stroke="#000000"/>
<polygon fill="#000000" points="233.5001,-222.784 230,-212.784 226.5001,-222.784 233.5001,-222.784" stroke="#000000"/>
</g>
<!-- 139677768463568 -->
<g class="node" id="node3">
<title>139677768463568</title>
<polygon fill="none" points="89.5,-83.5 89.5,-129.5 370.5,-129.5 370.5,-83.5 89.5,-83.5" stroke="#000000"/>
<text fill="#000000" font-family="Times,serif" font-size="14.00" text-anchor="middle" x="138.5" y="-102.8">flatten: Flatten</text>
<polyline fill="none" points="187.5,-83.5 187.5,-129.5 " stroke="#000000"/>
<text fill="#000000" font-family="Times,serif" font-size="14.00" text-anchor="middle" x="216.5" y="-114.3">input:</text>
<polyline fill="none" points="187.5,-106.5 245.5,-106.5 " stroke="#000000"/>
<text fill="#000000" font-family="Times,serif" font-size="14.00" text-anchor="middle" x="216.5" y="-91.3">output:</text>
<polyline fill="none" points="245.5,-83.5 245.5,-129.5 " stroke="#000000"/>
<text fill="#000000" font-family="Times,serif" font-size="14.00" text-anchor="middle" x="308" y="-114.3">(None, 5, 5, 1280)</text>
<polyline fill="none" points="245.5,-106.5 370.5,-106.5 " stroke="#000000"/>
<text fill="#000000" font-family="Times,serif" font-size="14.00" text-anchor="middle" x="308" y="-91.3">(None, 32000)</text>
</g>
<!-- 139677740791696&#45;&gt;139677768463568 -->
<g class="edge" id="edge2">
<title>139677740791696-&gt;139677768463568</title>
<path d="M230,-166.3799C230,-158.1745 230,-148.7679 230,-139.8786" fill="none" stroke="#000000"/>
<polygon fill="#000000" points="233.5001,-139.784 230,-129.784 226.5001,-139.784 233.5001,-139.784" stroke="#000000"/>
</g>
<!-- 139679701445264 -->
<g class="node" id="node4">
<title>139679701445264</title>
<polygon fill="none" points="104,-.5 104,-46.5 356,-46.5 356,-.5 104,-.5" stroke="#000000"/>
<text fill="#000000" font-family="Times,serif" font-size="14.00" text-anchor="middle" x="150" y="-19.8">dense: Dense</text>
<polyline fill="none" points="196,-.5 196,-46.5 " stroke="#000000"/>
<text fill="#000000" font-family="Times,serif" font-size="14.00" text-anchor="middle" x="225" y="-31.3">input:</text>
<polyline fill="none" points="196,-23.5 254,-23.5 " stroke="#000000"/>
<text fill="#000000" font-family="Times,serif" font-size="14.00" text-anchor="middle" x="225" y="-8.3">output:</text>
<polyline fill="none" points="254,-.5 254,-46.5 " stroke="#000000"/>
<text fill="#000000" font-family="Times,serif" font-size="14.00" text-anchor="middle" x="305" y="-31.3">(None, 32000)</text>
<polyline fill="none" points="254,-23.5 356,-23.5 " stroke="#000000"/>
<text fill="#000000" font-family="Times,serif" font-size="14.00" text-anchor="middle" x="305" y="-8.3">(None, 2)</text>
</g>
<!-- 139677768463568&#45;&gt;139679701445264 -->
<g class="edge" id="edge3">
<title>139677768463568-&gt;139679701445264</title>
<path d="M230,-83.3799C230,-75.1745 230,-65.7679 230,-56.8786" fill="none" stroke="#000000"/>
<polygon fill="#000000" points="233.5001,-56.784 230,-46.784 226.5001,-56.784 233.5001,-56.784" stroke="#000000"/>
</g>
</g>
</svg>